<mxfile host="app.diagrams.net" modified="2022-07-04T06:32:17.973Z" agent="5.0 (Macintosh; Intel Mac OS X 10_15_7) AppleWebKit/537.36 (KHTML, like Gecko) Chrome/103.0.0.0 Safari/537.36" etag="iHfCEwTCvD3HPMQJKrI0" version="20.0.4" type="github">
  <diagram id="xyAzYTvSB3YD5QFtGj1K" name="Page-1">
    <mxGraphModel dx="1298" dy="738" grid="1" gridSize="10" guides="1" tooltips="1" connect="1" arrows="1" fold="1" page="1" pageScale="1" pageWidth="850" pageHeight="1100" math="0" shadow="0">
      <root>
        <mxCell id="0" />
        <mxCell id="1" parent="0" />
        <mxCell id="LV0fYu5HAKNFjEawDoev-1" value="VFS" style="rounded=0;whiteSpace=wrap;html=1;fillColor=#dae8fc;strokeColor=#330000;" vertex="1" parent="1">
          <mxGeometry x="130" y="210" width="120" height="40" as="geometry" />
        </mxCell>
        <mxCell id="LV0fYu5HAKNFjEawDoev-2" value="File Systems&lt;br&gt;" style="rounded=0;whiteSpace=wrap;html=1;fillColor=#dae8fc;strokeColor=#330000;" vertex="1" parent="1">
          <mxGeometry x="130" y="250" width="120" height="40" as="geometry" />
        </mxCell>
        <mxCell id="LV0fYu5HAKNFjEawDoev-3" value="Volume Manager" style="rounded=0;whiteSpace=wrap;html=1;fillColor=#dae8fc;strokeColor=#330000;" vertex="1" parent="1">
          <mxGeometry x="130" y="290" width="120" height="40" as="geometry" />
        </mxCell>
        <mxCell id="LV0fYu5HAKNFjEawDoev-4" value="Block Device" style="rounded=0;whiteSpace=wrap;html=1;fillColor=#dae8fc;strokeColor=#330000;" vertex="1" parent="1">
          <mxGeometry x="130" y="330" width="120" height="40" as="geometry" />
        </mxCell>
        <mxCell id="LV0fYu5HAKNFjEawDoev-5" value="Sockets" style="rounded=0;whiteSpace=wrap;html=1;fillColor=#d5e8d4;strokeColor=#330000;" vertex="1" parent="1">
          <mxGeometry x="250" y="210" width="120" height="40" as="geometry" />
        </mxCell>
        <mxCell id="LV0fYu5HAKNFjEawDoev-6" value="TCP/UDP" style="rounded=0;whiteSpace=wrap;html=1;fillColor=#d5e8d4;strokeColor=#330000;" vertex="1" parent="1">
          <mxGeometry x="250" y="250" width="120" height="40" as="geometry" />
        </mxCell>
        <mxCell id="LV0fYu5HAKNFjEawDoev-7" value="IP" style="rounded=0;whiteSpace=wrap;html=1;fillColor=#d5e8d4;strokeColor=#330000;" vertex="1" parent="1">
          <mxGeometry x="250" y="290" width="120" height="40" as="geometry" />
        </mxCell>
        <mxCell id="LV0fYu5HAKNFjEawDoev-8" value="Net Device" style="rounded=0;whiteSpace=wrap;html=1;fillColor=#d5e8d4;strokeColor=#330000;" vertex="1" parent="1">
          <mxGeometry x="250" y="330" width="120" height="40" as="geometry" />
        </mxCell>
        <mxCell id="LV0fYu5HAKNFjEawDoev-9" value="Scheduler" style="rounded=0;whiteSpace=wrap;html=1;fillColor=#e1d5e7;strokeColor=#000000;" vertex="1" parent="1">
          <mxGeometry x="370" y="210" width="120" height="80" as="geometry" />
        </mxCell>
        <mxCell id="LV0fYu5HAKNFjEawDoev-10" value="Virtual Memory" style="rounded=0;whiteSpace=wrap;html=1;fillColor=#e1d5e7;strokeColor=#000000;" vertex="1" parent="1">
          <mxGeometry x="370" y="290" width="120" height="80" as="geometry" />
        </mxCell>
        <mxCell id="LV0fYu5HAKNFjEawDoev-11" value="Device Drivers" style="rounded=0;whiteSpace=wrap;html=1;fillColor=#f8cecc;strokeColor=#b85450;" vertex="1" parent="1">
          <mxGeometry x="130" y="370" width="360" height="40" as="geometry" />
        </mxCell>
        <mxCell id="LV0fYu5HAKNFjEawDoev-12" value="System Call Interface" style="rounded=0;whiteSpace=wrap;html=1;fillColor=#fff2cc;strokeColor=#330000;" vertex="1" parent="1">
          <mxGeometry x="130" y="170" width="360" height="40" as="geometry" />
        </mxCell>
        <mxCell id="LV0fYu5HAKNFjEawDoev-13" value="" style="rounded=0;whiteSpace=wrap;html=1;fillColor=#ffe6cc;strokeColor=#330000;" vertex="1" parent="1">
          <mxGeometry x="130" y="50" width="360" height="120" as="geometry" />
        </mxCell>
        <mxCell id="LV0fYu5HAKNFjEawDoev-14" value="System Libraries" style="rounded=0;whiteSpace=wrap;html=1;fillColor=#ffe6cc;strokeColor=#330000;" vertex="1" parent="1">
          <mxGeometry x="250" y="130" width="240" height="40" as="geometry" />
        </mxCell>
        <mxCell id="LV0fYu5HAKNFjEawDoev-15" value="Runtimes" style="rounded=0;whiteSpace=wrap;html=1;fillColor=#ffe6cc;strokeColor=#330000;" vertex="1" parent="1">
          <mxGeometry x="310" y="90" width="180" height="40" as="geometry" />
        </mxCell>
        <mxCell id="LV0fYu5HAKNFjEawDoev-16" value="Applications" style="text;html=1;strokeColor=none;fillColor=none;align=center;verticalAlign=middle;whiteSpace=wrap;rounded=0;" vertex="1" parent="1">
          <mxGeometry x="270" y="55" width="80" height="30" as="geometry" />
        </mxCell>
      </root>
    </mxGraphModel>
  </diagram>
</mxfile>
